# xmcd
#
# Track frame offsets: 
#        150
#        5781
#        20325
#        37598
#        52507
#        66966
#        84764
#        103223
#        121002
#        137666
#        154427
#        172502
#        185095
#        200817
#        222545
#        241414
#        252429
#        268622
#        282396
#
# Disc length: 3945 seconds
#
# Revision: 0
# Processed by: cddbd v1.5.2PL0 Copyright (c) Steve Scherf et al.
# Submitted via: ExactAudioCopy v1.0b3
#
DISCID=080f6713
DTITLE=PA Sports - Machtwechsel (Premium Edition)
DYEAR=2013
DGENRE=HipHop
TTITLE0=Intro
TTITLE1=Machtwechsel
TTITLE2=Flashback
TTITLE3=Zwei Kingz (feat. KC Rebell)
TTITLE4=Ein neuer Tag (feat. Raf Camora)
TTITLE5=Die Befreiung
TTITLE6=Majid
TTITLE7=Nie vegessen
TTITLE8=So bin ich (feat. BoZ)
TTITLE9=Flowanakonda
TTITLE10=Gute Männer lieben schlechte Frauen (feat. Mehrzad Marashi)
TTITLE11=Zeitmaschiene (Part 2)
TTITLE12=Hoch zu den Sternen
TTITLE13=Nur wir zwei
TTITLE14=Das jüngste Gericht (feat. Alpa Gun and Moe Mitchell)
TTITLE15=Outro
TTITLE16=Vertrauter Feind
TTITLE17=Ganz einfach (feat. Fard)
TTITLE18=Respekt
EXTD=
EXTT0=
EXTT1=
EXTT2=
EXTT3=
EXTT4=
EXTT5=
EXTT6=
EXTT7=
EXTT8=
EXTT9=
EXTT10=
EXTT11=
EXTT12=
EXTT13=
EXTT14=
EXTT15=
EXTT16=
EXTT17=
EXTT18=
PLAYORDER=
